<?xml version="1.0" standalone="no"?>
<!DOCTYPE svg PUBLIC "-//W3C//DTD SVG 20010904//EN"
 "http://www.w3.org/TR/2001/REC-SVG-20010904/DTD/svg10.dtd">
<svg version="1.0" xmlns="http://www.w3.org/2000/svg"
 width="300.000000pt" height="139.000000pt" viewBox="0 0 300.000000 139.000000"
 preserveAspectRatio="xMidYMid meet">

<g transform="translate(0.000000,139.000000) scale(0.100000,-0.100000)"
fill="#000000" stroke="none">
<path d="M2225 1379 c-11 -7 -35 -25 -53 -41 l-33 -28 -323 0 -324 0 -26 35
c-36 46 -66 46 -103 0 -32 -41 -44 -44 -40 -12 l2 22 -267 3 -266 2 -7 -40 -7
-40 -112 0 c-108 0 -116 -2 -176 -32 l-63 -33 -213 -520 -213 -520 425 -3 424
-2 -6 -28 c-4 -15 -13 -47 -20 -72 -8 -25 -14 -51 -14 -58 0 -10 73 -12 348
-10 l347 3 3 83 3 82 698 0 697 0 47 65 47 64 -121 353 c-67 194 -132 386
-146 426 l-25 72 -62 0 c-82 0 -89 8 -64 80 15 46 17 63 8 79 -18 35 -58 37
-117 6 l-53 -28 -59 47 c-64 50 -104 63 -136 45z m114 -45 c33 -25 63 -50 66
-54 3 -5 35 5 71 23 50 25 68 29 82 21 24 -15 26 -46 7 -105 -23 -67 -12 -79
70 -79 l63 0 26 -72 c14 -40 56 -165 95 -278 38 -113 91 -269 118 -346 l50
-142 -44 -61 -44 -61 -705 0 -704 0 0 -85 0 -85 -336 0 -335 0 7 23 c14 44 34
122 34 135 0 9 -91 12 -421 12 l-420 0 7 22 c4 13 47 120 97 238 49 118 102
247 118 285 15 39 65 162 111 275 l83 205 60 32 c58 31 65 32 177 33 l116 0 7
40 7 40 254 0 254 0 0 -25 c0 -35 31 -33 53 4 28 48 56 50 93 7 l31 -36 328 0
327 0 50 40 c28 22 59 40 68 40 10 0 45 -21 79 -46z"/>
<path d="M2204 1300 l-49 -40 -358 0 -358 0 -10 30 c-14 37 -20 37 -41 0 -15
-27 -22 -30 -67 -30 -47 0 -50 2 -53 28 l-3 27 -207 3 -207 2 -10 -37 c-6 -21
-11 -43 -11 -49 0 -8 -44 -14 -137 -18 -105 -5 -148 -11 -180 -26 -24 -11 -43
-24 -43 -29 0 -5 -33 -87 -74 -182 l-73 -174 25 -32 24 -33 -36 0 c-32 0 -37
-4 -52 -37 -36 -85 -176 -429 -181 -444 -4 -14 35 -15 411 -11 350 4 416 3
416 -9 0 -14 -19 -90 -34 -136 l-7 -23 270 0 271 0 0 80 0 80 243 0 c134 0
460 3 724 7 l480 6 22 33 23 33 -68 200 -68 201 -33 0 c-39 0 -40 3 -13 41
l21 28 -25 73 c-14 40 -39 109 -55 153 l-29 80 -43 3 c-30 2 -55 12 -79 32
l-34 28 17 54 c9 30 17 60 17 66 0 6 -26 -4 -57 -22 l-57 -34 -72 59 c-39 32
-75 59 -81 59 -6 0 -33 -18 -59 -40z m-1162 -90 c-4 -73 -20 -100 -62 -100
-41 0 -53 21 -45 77 11 73 28 95 73 91 l37 -3 -3 -65z m128 55 c0 -10 -10 -15
-30 -15 -18 0 -30 -5 -30 -13 0 -7 14 -18 30 -24 26 -10 30 -16 30 -47 0 -41
-20 -56 -74 -56 -29 0 -36 4 -36 20 0 16 7 20 35 20 24 0 35 5 35 15 0 8 -8
15 -18 15 -25 0 -42 20 -42 50 0 36 17 50 62 50 27 0 38 -4 38 -15z m250 -10
c0 -23 -75 -62 -86 -44 -3 5 6 9 20 9 15 0 31 8 38 20 12 18 28 27 28 15z m41
-43 c-13 -2 -27 0 -32 5 -6 6 3 7 23 4 28 -4 29 -6 9 -9z m-34 -24 c18 -24 23
-47 9 -42 -26 10 -26 -14 -1 -34 14 -11 25 -24 25 -28 0 -4 -18 10 -40 31 -38
37 -49 63 -33 78 10 11 30 8 40 -5z m648 -10 c5 4 5 -1 2 -11 -4 -10 -7 -22
-7 -27 0 -14 -35 -6 -41 10 -9 21 10 43 26 30 6 -5 16 -6 20 -2z m141 -28 c0
-21 -39 -21 -47 0 -8 20 21 41 36 27 6 -6 11 -18 11 -27z m159 28 c19 -9 28
-9 37 0 19 19 28 14 28 -18 0 -18 6 -33 15 -36 22 -9 18 -24 -5 -24 -15 0 -20
-7 -20 -25 0 -30 -15 -33 -30 -5 -7 13 -21 20 -42 20 -30 0 -30 0 -14 25 12
19 14 30 6 44 -18 34 -14 37 25 19z m-420 -17 c7 -12 -12 -24 -25 -16 -11 7
-4 25 10 25 5 0 11 -4 15 -9z m-1157 -61 l-10 -39 -96 -3 -96 -3 -41 -115 -42
-115 99 -3 c106 -3 107 -3 87 -61 l-11 -31 -126 0 -127 0 -28 35 c-33 41 -35
29 36 208 64 163 68 166 243 167 l122 0 -10 -40z m543 -3 c-10 -9 -11 -8 -5 6
3 10 9 15 12 12 3 -3 0 -11 -7 -18z m109 -49 l50 -33 0 -142 0 -143 -35 0
c-32 0 -35 3 -35 28 0 37 -3 39 -45 34 -30 -4 -37 -9 -42 -33 -5 -25 -10 -29
-39 -29 -31 0 -33 2 -29 33 3 17 7 80 11 139 l6 106 51 36 c29 19 53 35 55 35
1 1 25 -14 52 -31z m-462 -11 c26 -25 27 -38 5 -189 l-16 -118 -34 0 c-31 0
-33 2 -33 35 0 34 -1 35 -40 35 -37 0 -39 -2 -46 -35 -6 -32 -9 -35 -40 -35
-21 0 -34 5 -34 13 0 6 12 68 25 137 14 69 25 126 25 127 0 1 19 15 43 32 35
25 48 29 82 24 22 -3 50 -15 63 -26z m133 -24 c0 -32 4 -79 7 -105 l7 -48 39
105 c37 102 39 105 68 105 28 0 30 -2 25 -28 -3 -15 -29 -91 -58 -170 l-53
-142 -42 0 -41 0 -7 46 c-3 26 -6 102 -6 170 l0 124 30 0 c30 0 30 0 31 -57z
m481 -80 l3 -138 43 0 c41 0 42 -1 42 -32 l0 -33 -74 0 -73 0 -7 89 c-4 49 -4
126 0 170 7 81 7 81 35 81 l28 0 3 -137z m256 110 c3 -20 -1 -23 -35 -23 l-39
0 4 -40 c4 -38 6 -40 38 -40 30 0 34 -3 34 -25 0 -21 -5 -25 -30 -25 l-30 0 0
-60 0 -60 45 0 c38 0 45 -3 45 -20 0 -18 -7 -20 -80 -20 -76 0 -80 1 -81 23 0
12 -4 85 -8 162 -5 77 -6 144 -4 148 3 4 35 7 71 5 61 -3 67 -5 70 -25z m102
19 c0 -5 6 -55 14 -113 8 -57 17 -130 20 -161 l6 -58 -34 0 -33 0 -12 92 c-7
50 -15 126 -18 170 l-6 78 32 0 c17 0 31 -4 31 -8z m192 -15 c36 -29 54 -104
31 -129 -14 -16 -13 -18 10 -29 20 -9 26 -21 31 -58 4 -25 9 -58 12 -73 5 -26
3 -28 -29 -28 l-35 0 -19 83 c-16 72 -21 82 -42 85 l-24 4 8 -86 7 -86 -30 0
c-21 0 -32 6 -36 18 -12 38 -46 304 -41 312 4 6 34 10 68 10 49 -1 68 -5 89
-23z m230 -2 c41 -28 39 -23 68 -162 20 -96 21 -103 5 -127 -15 -22 -24 -26
-69 -26 -42 0 -58 5 -84 28 -30 25 -35 37 -57 147 l-24 119 21 23 c30 32 91
31 140 -2z m237 6 c14 -25 5 -31 -46 -31 -46 0 -46 -1 -37 -49 6 -27 11 -31
39 -31 47 0 111 -50 124 -97 25 -90 7 -113 -94 -113 -64 0 -73 2 -78 20 -5 18
0 20 55 20 l61 0 -6 28 c-13 66 -25 82 -59 82 -54 0 -103 41 -117 97 -12 46
-12 49 14 70 35 31 129 33 144 4z m-612 -366 c-6 -14 10 -154 36 -318 8 -47
12 -89 9 -92 -8 -8 -70 -6 -76 3 -2 4 -14 84 -25 177 -12 94 -24 180 -26 193
-4 15 -1 22 10 22 8 0 15 7 15 15 0 10 10 15 31 15 23 0 30 -4 26 -15z m-1202
-35 c32 -33 34 -10 -19 -215 -22 -85 -30 -104 -58 -127 -28 -23 -43 -28 -93
-28 -53 0 -62 3 -91 31 l-31 30 38 121 c22 66 39 126 39 134 0 27 68 69 122
75 29 3 56 6 59 7 3 1 18 -11 34 -28z m-266 -1 c17 -21 16 -27 -29 -168 -46
-144 -48 -146 -91 -173 -39 -26 -51 -28 -141 -28 -54 0 -98 4 -98 9 0 5 22 60
48 122 27 63 62 147 78 186 l29 73 93 0 c84 0 96 -2 111 -21z m871 -28 c0 -33
-5 -53 -17 -62 -20 -17 -263 -306 -263 -314 0 -3 61 -5 135 -5 l135 0 0 -60 0
-60 -231 0 -231 0 6 28 c24 96 30 107 114 200 48 54 114 127 146 165 l58 67
-122 0 -122 0 6 31 c3 17 6 38 6 45 0 11 35 14 190 14 l190 0 0 -49z m222 29
c24 -18 25 -25 32 -171 l7 -152 -27 -28 c-23 -25 -36 -29 -79 -29 -41 0 -57 5
-84 28 l-33 27 1 145 c2 142 3 145 28 172 22 24 35 28 79 28 36 0 59 -6 76
-20z m245 -2 c14 -15 23 -43 27 -83 4 -33 12 -100 18 -148 11 -88 11 -88 -15
-115 -25 -26 -30 -27 -110 -24 l-85 3 -6 92 c-3 51 -8 138 -12 195 l-6 102 84
0 c75 0 87 -3 105 -22z m363 -13 c41 -30 49 -42 55 -78 4 -23 17 -85 30 -137
37 -150 38 -143 -15 -143 -43 0 -45 1 -53 37 -9 36 -10 37 -51 34 -39 -3 -41
-4 -38 -34 3 -31 2 -32 -38 -36 -24 -2 -44 1 -46 7 -1 5 -13 79 -24 164 l-22
153 33 34 c47 48 102 48 169 -1z m284 13 c12 -45 9 -48 -55 -48 l-61 0 7 -47
c8 -60 32 -160 46 -192 9 -23 13 -23 74 -17 68 7 77 2 86 -48 4 -17 -3 -18
-86 -17 -79 2 -95 5 -127 28 -28 19 -39 35 -44 62 -3 20 -16 83 -28 141 l-23
106 21 27 c19 26 24 27 102 27 76 0 82 -1 88 -22z m221 0 c31 -21 39 -38 85
-171 50 -145 50 -148 33 -172 -16 -21 -26 -24 -78 -25 -79 0 -129 31 -145 90
-6 22 -24 84 -40 136 -35 113 -35 108 -14 139 14 22 24 25 70 25 39 0 64 -6
89 -22z"/>
<path d="M990 1238 c0 -7 -3 -31 -6 -53 -5 -27 -3 -37 3 -30 14 13 24 95 12
95 -5 0 -9 -6 -9 -12z"/>
<path d="M1370 966 c0 -18 -3 -48 -6 -65 -6 -29 -5 -31 24 -31 25 0 30 5 36
31 3 17 6 47 6 65 0 31 -3 34 -30 34 -27 0 -30 -3 -30 -34z"/>
<path d="M866 953 c-4 -27 -9 -56 -12 -65 -4 -15 1 -18 29 -18 l34 0 9 65 10
65 -32 0 c-30 0 -32 -2 -38 -47z"/>
<path d="M2070 995 c0 -23 6 -38 15 -42 21 -8 23 -4 17 40 -6 49 -32 51 -32 2z"/>
<path d="M2300 1018 c0 -4 35 -169 45 -215 3 -15 13 -23 25 -23 11 0 20 1 20
3 -1 1 -13 54 -29 117 -20 86 -32 116 -44 118 -9 2 -17 2 -17 0z"/>
<path d="M675 563 c-10 -32 -27 -95 -40 -140 l-22 -83 28 0 c15 0 30 4 33 9 8
12 66 242 66 259 0 6 -11 12 -24 12 -21 0 -27 -8 -41 -57z"/>
<path d="M390 563 c-12 -32 -35 -95 -50 -140 l-29 -83 24 0 c26 0 35 18 91
183 l33 97 -23 0 c-19 0 -27 -11 -46 -57z"/>
<path d="M1536 531 c-4 -44 -4 -107 0 -140 5 -50 10 -61 25 -61 18 0 19 10 19
140 0 130 -1 140 -19 140 -16 0 -19 -11 -25 -79z"/>
<path d="M1784 528 c13 -173 16 -188 39 -188 19 0 20 4 14 88 -11 155 -17 182
-40 182 -18 0 -19 -5 -13 -82z"/>
<path d="M2134 550 c3 -22 9 -58 12 -80 6 -39 7 -40 44 -40 l37 0 -8 43 c-5
23 -11 59 -15 80 -6 34 -9 37 -41 37 l-35 0 6 -40z"/>
<path d="M2663 596 c3 -8 11 -34 17 -58 6 -24 22 -78 36 -120 20 -61 30 -78
45 -78 10 0 19 5 19 10 0 6 -18 67 -41 135 -34 106 -43 125 -61 125 -13 0 -18
-5 -15 -14z"/>
</g>
</svg>
